<svg xmlns="http://www.w3.org/2000/svg" xmlns:xlink="http://www.w3.org/1999/xlink" width="2000" zoomAndPan="magnify" viewBox="0 0 1500 1499.999933" height="2000" preserveAspectRatio="xMidYMid meet" version="1.0"><defs><g/></defs><g fill="#d4a758" fill-opacity="1"><g transform="translate(1131.912011, 1009.125637)"><g><path d="M 11.441406 81.898438 C 2.476562 83.179688 -5.78125 81.300781 -13.339844 76.261719 C -18.574219 72.773438 -22.871094 68.007812 -26.226562 61.96875 L -28.339844 58.160156 L -29.285156 53.90625 C -30.886719 46.699219 -30.613281 39.867188 -28.460938 33.414062 C -25.441406 24.355469 -19.625 17.671875 -11.015625 13.367188 L 2.398438 40.199219 L -16.339844 16.773438 C -12.394531 13.617188 -8.183594 11.019531 -3.714844 8.988281 C 0.144531 7.234375 3.757812 5.9375 7.125 5.097656 L 14.398438 34.199219 L 4.914062 5.738281 C 16 2.042969 27.121094 -0.734375 38.269531 -2.59375 L 43.199219 27 L 34.578125 -1.734375 C 31.75 -0.886719 29.203125 0.671875 26.9375 2.9375 C 24.671875 5.203125 23.113281 7.75 22.265625 10.578125 L 26.613281 -3.097656 C 30.445312 -16.144531 34.242188 -29.402344 38.007812 -42.875 C 41.769531 -56.339844 45.433594 -69.808594 49 -83.277344 L 78 -75.601562 L 48.796875 -82.472656 C 52.175781 -96.820312 56.078125 -110.960938 60.511719 -124.894531 L 73.433594 -165.167969 L 102 -156 L 73.234375 -164.523438 C 76.546875 -175.699219 80.066406 -186.773438 83.792969 -197.746094 L 94.621094 -229.328125 L 123 -219.601562 L 94.328125 -228.421875 C 97.613281 -239.097656 101.101562 -249.875 104.792969 -260.746094 L 115.566406 -292.765625 L 116.738281 -296.285156 L 117.941406 -299.886719 C 117.84375 -299.597656 117.765625 -299.28125 117.707031 -298.933594 C 118.039062 -300.917969 118.503906 -303.101562 119.097656 -305.476562 L 148.199219 -298.199219 L 118.5 -302.441406 C 117.566406 -295.910156 119.179688 -289.734375 123.339844 -283.914062 C 126.429688 -279.582031 130.421875 -276.410156 135.316406 -274.398438 C 138.546875 -273.066406 141.84375 -272.398438 145.199219 -272.398438 L 143.398438 -272.398438 L 143.398438 -302.398438 L 151.128906 -273.414062 C 139.324219 -270.265625 127.613281 -267.019531 116.007812 -263.671875 C 107.855469 -261.324219 100.082031 -257.308594 92.691406 -251.621094 L 74.398438 -275.398438 L 95.613281 -254.1875 C 88.554688 -247.128906 79.882812 -243.601562 69.601562 -243.601562 C 64.15625 -243.601562 59.042969 -244.660156 54.265625 -246.785156 C 48.609375 -249.300781 43.921875 -253.039062 40.199219 -258 L 64.199219 -276 L 42.988281 -254.785156 C 36.804688 -260.96875 33.363281 -268.308594 32.652344 -276.808594 C 32.039062 -284.199219 33.671875 -291.289062 37.550781 -298.085938 L 38.066406 -298.980469 L 38.636719 -299.839844 C 43.785156 -307.5625 52.035156 -314.503906 63.386719 -320.664062 C 71.519531 -325.082031 80.585938 -329.21875 90.589844 -333.082031 C 100.171875 -336.785156 109.46875 -339.957031 118.472656 -342.59375 C 127.511719 -345.238281 134.460938 -347.046875 139.316406 -348.015625 L 140.03125 -348.160156 L 140.75 -348.269531 C 139.480469 -348.078125 137.957031 -347.277344 136.179688 -345.871094 C 133.242188 -343.546875 131.347656 -340.679688 130.496094 -337.277344 L 131.292969 -340.472656 L 136.746094 -351.371094 L 140.1875 -354.8125 C 139.980469 -354.609375 139.753906 -354.335938 139.5 -354 C 139.019531 -353.355469 138.574219 -352.628906 138.167969 -351.816406 L 139.375 -354.234375 L 141 -356.398438 C 144.433594 -360.976562 148.660156 -364.519531 153.683594 -367.03125 C 158.707031 -369.542969 164.078125 -370.800781 169.800781 -370.800781 L 174.570312 -370.800781 L 177.484375 -370.21875 C 188.550781 -368.003906 196.832031 -361.953125 202.324219 -352.070312 C 204.839844 -347.539062 206.605469 -342.746094 207.617188 -337.683594 L 208.199219 -334.769531 L 208.199219 -331.800781 C 208.199219 -335.921875 207.257812 -339.867188 205.371094 -343.640625 C 203.21875 -347.941406 200.160156 -351.414062 196.191406 -354.0625 C 192.050781 -356.820312 187.855469 -358.199219 183.601562 -358.199219 L 183.601562 -328.199219 L 175.136719 -356.980469 C 182.398438 -359.117188 189.5625 -361.042969 196.632812 -362.753906 L 216.832031 -367.578125 C 222.996094 -369.03125 228.9375 -370.648438 234.652344 -372.433594 C 240.519531 -374.269531 246.390625 -376.285156 252.265625 -378.488281 L 262.800781 -350.398438 L 249.382812 -377.234375 C 251.453125 -378.269531 253.765625 -379.210938 256.3125 -380.058594 C 258.242188 -380.703125 260.378906 -381.316406 262.722656 -381.902344 L 270 -352.800781 L 260.511719 -381.261719 C 268.628906 -383.964844 276.605469 -383.507812 284.445312 -379.890625 C 288.964844 -377.804688 292.972656 -374.757812 296.476562 -370.753906 C 302.824219 -363.5 306 -355.316406 306 -346.199219 L 276 -346.199219 L 305.769531 -349.921875 C 306.761719 -341.984375 305.390625 -334.550781 301.664062 -327.628906 C 298.449219 -321.660156 293.796875 -316.769531 287.699219 -312.960938 L 287.3125 -312.71875 L 286.917969 -312.488281 C 279.65625 -308.25 271.441406 -304.988281 262.277344 -302.695312 L 226.730469 -293.214844 L 189.34375 -283.242188 L 187.933594 -283.007812 C 188.90625 -283.171875 190.015625 -283.8125 191.257812 -284.9375 C 192.367188 -285.9375 193.011719 -286.757812 193.199219 -287.398438 L 193.078125 -286.980469 L 143.742188 -134.46875 C 127.910156 -84.78125 113.050781 -34.160156 99.167969 17.398438 L 70.199219 9.601562 L 99.554688 15.78125 C 99.523438 15.945312 99.503906 16.042969 99.5 16.074219 C 99.53125 15.820312 99.550781 15.5 99.558594 15.113281 C 99.597656 12.789062 99.144531 10.347656 98.199219 7.777344 C 96.265625 2.53125 92.902344 -1.664062 88.101562 -4.804688 C 83.835938 -7.601562 79.269531 -9 74.398438 -9 C 74.5 -9 74.550781 -9 74.550781 -9 C 74.308594 -8.988281 74.015625 -8.960938 73.679688 -8.917969 C 71.078125 -8.59375 68.449219 -7.765625 65.785156 -6.433594 L 69.90625 -8.496094 L 74.460938 -9.222656 C 83.757812 -10.710938 92.757812 -12.472656 101.464844 -14.511719 C 109.46875 -16.382812 117.402344 -18.859375 125.269531 -21.9375 L 136.199219 6 L 122.785156 -20.832031 C 125.980469 -22.429688 129.390625 -23.59375 133.015625 -24.316406 C 135.957031 -24.90625 139.21875 -25.199219 142.800781 -25.199219 C 149.382812 -25.199219 155.390625 -23.691406 160.820312 -20.675781 C 167.933594 -16.722656 173.011719 -10.945312 176.054688 -3.339844 L 148.199219 7.800781 L 172.867188 -9.277344 C 176.171875 -4.503906 178.332031 0.546875 179.351562 5.871094 C 180.730469 13.058594 179.984375 19.992188 177.125 26.667969 C 173.132812 35.980469 165.753906 43.027344 154.984375 47.8125 C 146.808594 51.667969 136.171875 55.230469 123.074219 58.503906 C 110.992188 61.523438 98.699219 64.003906 86.199219 65.945312 L 57.429688 70.441406 L 52.800781 40.800781 L 58.683594 70.21875 C 47.605469 72.433594 36.519531 75.207031 25.421875 78.535156 L 16.800781 49.800781 L 31.683594 75.847656 C 24.273438 80.082031 16.109375 82.199219 7.199219 82.199219 L 7.199219 52.199219 Z M 2.957031 22.5 L 5.066406 22.199219 L 7.199219 22.199219 C 5.488281 22.199219 3.726562 22.71875 1.914062 23.753906 L 4.894531 22.050781 L 8.179688 21.066406 C 21.082031 17.195312 33.992188 13.96875 46.917969 11.382812 L 47.539062 11.257812 L 77 6.65625 C 87.699219 4.996094 98.207031 2.875 108.523438 0.296875 C 117.828125 -2.03125 125.191406 -4.46875 130.617188 -7.015625 C 129.933594 -6.710938 129.105469 -6.160156 128.132812 -5.359375 C 125.496094 -3.191406 123.445312 -0.394531 121.976562 3.03125 C 120.015625 7.609375 119.496094 12.316406 120.421875 17.15625 C 120.992188 20.128906 122.03125 22.703125 123.535156 24.875 L 121.605469 22.089844 L 120.34375 18.941406 C 122.585938 24.542969 126.363281 28.820312 131.679688 31.773438 C 135.3125 33.792969 139.015625 34.800781 142.800781 34.800781 C 143.179688 34.800781 143.839844 34.707031 144.785156 34.515625 C 146.410156 34.191406 148.019531 33.628906 149.617188 32.832031 L 148.398438 33.441406 L 147.132812 33.9375 C 136.597656 38.058594 125.933594 41.382812 115.136719 43.910156 C 105.042969 46.273438 94.644531 48.3125 83.941406 50.023438 L 79.199219 20.398438 L 92.617188 47.234375 C 87.59375 49.746094 81.519531 51 74.398438 51 C 67.332031 51 60.9375 49.128906 55.222656 45.382812 C 48.972656 41.289062 44.53125 35.667969 41.898438 28.519531 C 39.210938 21.21875 38.859375 12.851562 40.84375 3.417969 L 41.015625 2.605469 L 41.230469 1.800781 C 55.351562 -50.640625 70.492188 -102.21875 86.65625 -152.933594 L 135.855469 -305.03125 L 164.398438 -295.800781 L 135.601562 -304.199219 C 138.585938 -314.441406 143.734375 -322.863281 151.042969 -329.464844 C 158.484375 -336.1875 167.496094 -340.429688 178.066406 -342.191406 L 183 -312.601562 L 175.269531 -341.585938 L 211.269531 -351.1875 L 247.722656 -360.902344 C 251.359375 -361.8125 254.34375 -362.949219 256.683594 -364.3125 L 271.800781 -338.398438 L 255.898438 -363.839844 C 253.003906 -362.03125 250.648438 -359.441406 248.835938 -356.074219 C 246.507812 -351.75 245.640625 -347.21875 246.230469 -342.480469 L 246 -344.332031 L 246 -346.199219 C 246 -340.285156 247.773438 -335.300781 251.324219 -331.246094 C 253.425781 -328.839844 256.085938 -326.894531 259.304688 -325.410156 C 265.84375 -322.390625 272.574219 -322.035156 279.488281 -324.339844 L 278.394531 -323.976562 L 277.277344 -323.695312 C 276.421875 -323.480469 275.757812 -323.296875 275.285156 -323.140625 L 275.292969 -323.144531 C 275.5625 -323.253906 275.871094 -323.394531 276.214844 -323.566406 L 274.808594 -322.863281 L 273.332031 -322.308594 C 266.410156 -319.714844 259.480469 -317.332031 252.546875 -315.164062 C 245.460938 -312.953125 238.203125 -310.96875 230.769531 -309.21875 L 210.769531 -304.445312 C 204.636719 -302.957031 198.402344 -301.28125 192.066406 -299.417969 L 187.921875 -298.199219 L 183.601562 -298.199219 C 175.746094 -298.199219 168.847656 -300.179688 162.910156 -304.136719 C 158.039062 -307.382812 154.304688 -311.609375 151.703125 -316.808594 C 149.367188 -321.480469 148.199219 -326.480469 148.199219 -331.800781 L 178.199219 -331.800781 L 148.78125 -325.917969 C 148.996094 -324.855469 149.359375 -323.859375 149.875 -322.929688 C 153.367188 -316.644531 158.648438 -312.796875 165.714844 -311.382812 L 171.601562 -340.800781 L 171.601562 -310.800781 L 169.800781 -310.800781 C 173.519531 -310.800781 177.09375 -311.65625 180.515625 -313.367188 C 183.9375 -315.078125 186.765625 -317.421875 189 -320.398438 L 165 -338.398438 L 191.832031 -324.984375 C 190.625 -322.570312 189.183594 -320.242188 187.5 -318 C 186.046875 -316.0625 184.417969 -314.191406 182.613281 -312.386719 L 161.398438 -333.601562 L 188.234375 -320.183594 L 186.433594 -316.582031 L 159.601562 -330 L 188.703125 -322.722656 C 186.253906 -312.917969 181.160156 -304.953125 173.421875 -298.828125 C 166.84375 -293.621094 158.917969 -290.324219 149.648438 -288.933594 L 145.199219 -318.601562 L 151.082031 -289.183594 C 147.941406 -288.554688 142.6875 -287.164062 135.328125 -285.007812 C 127.933594 -282.84375 120.226562 -280.214844 112.210938 -277.117188 C 104.613281 -274.179688 97.878906 -271.121094 92.011719 -267.933594 C 90.007812 -266.84375 88.496094 -265.902344 87.480469 -265.101562 C 87.371094 -265.015625 87.289062 -264.945312 87.226562 -264.890625 C 87.246094 -264.910156 87.28125 -264.945312 87.335938 -265.003906 C 87.734375 -265.410156 88.140625 -265.929688 88.5625 -266.558594 L 63.601562 -283.199219 L 89.648438 -268.316406 C 91.929688 -272.308594 92.863281 -276.800781 92.445312 -281.792969 C 91.9375 -287.890625 89.59375 -293.03125 85.414062 -297.214844 L 86.921875 -295.707031 L 88.199219 -294 C 85.679688 -297.363281 82.488281 -299.902344 78.632812 -301.613281 C 75.65625 -302.9375 72.644531 -303.601562 69.601562 -303.601562 C 63.316406 -303.601562 57.84375 -301.269531 53.1875 -296.613281 L 54.5625 -297.992188 L 56.109375 -299.179688 C 69.519531 -309.492188 83.945312 -316.875 99.394531 -321.328125 C 111.386719 -324.78125 123.476562 -328.136719 135.671875 -331.386719 L 139.46875 -332.398438 L 145.199219 -332.398438 C 149.757812 -332.398438 154.078125 -331.558594 158.160156 -329.878906 C 163.902344 -327.511719 168.570312 -323.816406 172.160156 -318.789062 C 177.320312 -311.566406 179.230469 -303.289062 177.898438 -293.957031 L 177.679688 -292.425781 L 177.304688 -290.925781 C 177.097656 -290.097656 176.960938 -289.480469 176.890625 -289.066406 C 176.433594 -286.320312 175.757812 -283.601562 174.859375 -280.914062 L 173.660156 -277.3125 L 172.433594 -273.632812 L 161.605469 -241.453125 C 158.097656 -231.125 154.789062 -220.902344 151.671875 -210.777344 L 151.53125 -210.320312 L 140.605469 -178.453125 C 137.132812 -168.226562 133.851562 -157.898438 130.765625 -147.476562 L 130.667969 -147.15625 L 117.6875 -106.703125 C 113.722656 -94.238281 110.226562 -81.578125 107.203125 -68.730469 L 107.105469 -68.324219 L 107 -67.921875 C 103.367188 -54.191406 99.628906 -40.457031 95.792969 -26.726562 C 91.957031 -12.996094 87.953125 0.945312 83.789062 15.097656 L 79.734375 27.820312 C 77.6875 34.648438 74.230469 40.496094 69.363281 45.363281 C 64.496094 50.230469 58.648438 53.6875 51.820312 55.734375 L 50.003906 56.28125 L 48.132812 56.59375 C 40.078125 57.933594 32 59.957031 23.886719 62.660156 L 22.792969 63.023438 L 21.675781 63.304688 C 21.925781 63.242188 22.082031 63.199219 22.144531 63.175781 C 21.886719 63.269531 21.542969 63.414062 21.113281 63.609375 L 21.140625 63.625 L 18.660156 65.613281 L 15.816406 67.03125 C 22.027344 63.929688 26.242188 59.046875 28.460938 52.386719 C 29.8125 48.332031 30.085938 44.5 29.285156 40.890625 L 0 47.398438 L 26.226562 32.832031 C 24.871094 30.390625 22.777344 28.226562 19.941406 26.339844 C 14.78125 22.898438 9.121094 21.621094 2.957031 22.5 Z M 2.957031 22.5 "/></g></g></g><g fill="#d4a758" fill-opacity="1"><g transform="translate(1131.912011, 1009.125637)"><g><path d="M 7.203125 52.203125 C 4.398438 52.597656 2 51 0 47.40625 C -0.800781 43.800781 0 41.398438 2.40625 40.203125 C 4.40625 38.597656 6.503906 37.296875 8.703125 36.296875 C 10.898438 35.296875 12.800781 34.597656 14.40625 34.203125 C 24 31.003906 33.597656 28.601562 43.203125 27 C 47.203125 25.800781 49.800781 23.203125 51 19.203125 L 55.203125 6 C 59.203125 -7.601562 63.097656 -21.203125 66.890625 -34.796875 C 70.691406 -48.398438 74.394531 -62 78 -75.59375 C 81.195312 -89.195312 84.894531 -102.597656 89.09375 -115.796875 C 93.300781 -128.992188 97.601562 -142.394531 102 -156 C 105.195312 -166.800781 108.59375 -177.5 112.1875 -188.09375 C 115.789062 -198.695312 119.394531 -209.195312 123 -219.59375 C 126.195312 -230 129.59375 -240.5 133.1875 -251.09375 C 136.789062 -261.695312 140.394531 -272.398438 144 -283.203125 C 144.394531 -284.398438 144.789062 -285.597656 145.1875 -286.796875 C 145.59375 -287.992188 146 -289.195312 146.40625 -290.40625 C 146.800781 -291.601562 147.097656 -292.800781 147.296875 -294 C 147.492188 -295.195312 147.796875 -296.597656 148.203125 -298.203125 C 148.597656 -301.003906 147.597656 -302.40625 145.203125 -302.40625 L 143.40625 -302.40625 C 131.40625 -299.195312 119.503906 -295.894531 107.703125 -292.5 C 95.898438 -289.101562 84.800781 -283.40625 74.40625 -275.40625 C 73.195312 -274.195312 71.59375 -273.59375 69.59375 -273.59375 C 67.195312 -273.59375 65.398438 -274.394531 64.203125 -276 C 62.203125 -278 62 -280.398438 63.59375 -283.203125 C 66 -286.796875 70.703125 -290.492188 77.703125 -294.296875 C 84.703125 -298.097656 92.597656 -301.695312 101.390625 -305.09375 C 110.191406 -308.5 118.691406 -311.398438 126.890625 -313.796875 C 135.097656 -316.203125 141.203125 -317.800781 145.203125 -318.59375 C 153.203125 -319.800781 158 -323.601562 159.59375 -330 L 161.40625 -333.59375 C 162.195312 -334.394531 162.894531 -335.195312 163.5 -336 C 164.101562 -336.800781 164.601562 -337.601562 165 -338.40625 C 166.195312 -340 167.796875 -340.796875 169.796875 -340.796875 L 171.59375 -340.796875 C 173.59375 -340.398438 175.09375 -339.300781 176.09375 -337.5 C 177.09375 -335.695312 177.796875 -333.796875 178.203125 -331.796875 C 178.203125 -329.398438 180 -328.203125 183.59375 -328.203125 C 190.394531 -330.203125 197.09375 -332 203.6875 -333.59375 C 210.289062 -335.195312 216.992188 -336.800781 223.796875 -338.40625 C 230.597656 -340 237.195312 -341.796875 243.59375 -343.796875 C 250 -345.796875 256.398438 -348 262.796875 -350.40625 C 263.597656 -350.800781 264.597656 -351.195312 265.796875 -351.59375 C 266.992188 -352 268.394531 -352.398438 270 -352.796875 C 271.195312 -353.203125 272.492188 -352.601562 273.890625 -351 C 275.296875 -349.394531 276 -347.796875 276 -346.203125 C 276.394531 -343.003906 274.992188 -340.40625 271.796875 -338.40625 C 266.992188 -335.601562 261.394531 -333.398438 255 -331.796875 C 243 -328.597656 231 -325.398438 219 -322.203125 C 207 -319.003906 195 -315.800781 183 -312.59375 C 173.394531 -311 167.195312 -305.398438 164.40625 -295.796875 C 147.601562 -244.597656 131.203125 -193.898438 115.203125 -143.703125 C 99.203125 -93.503906 84.203125 -42.40625 70.203125 9.59375 C 68.597656 17.195312 70 21 74.40625 21 C 76.800781 21 78.398438 20.800781 79.203125 20.40625 C 89.203125 18.800781 98.898438 16.898438 108.296875 14.703125 C 117.703125 12.503906 127.003906 9.601562 136.203125 6 C 137.003906 5.601562 137.90625 5.300781 138.90625 5.09375 C 139.90625 4.894531 141.203125 4.796875 142.796875 4.796875 C 145.597656 4.796875 147.398438 5.796875 148.203125 7.796875 C 151.796875 12.992188 149.992188 17.195312 142.796875 20.40625 C 135.992188 23.601562 126.992188 26.597656 115.796875 29.390625 C 104.597656 32.191406 93.195312 34.492188 81.59375 36.296875 C 70 38.097656 60.398438 39.597656 52.796875 40.796875 C 40.796875 43.203125 28.796875 46.203125 16.796875 49.796875 C 13.992188 51.398438 10.796875 52.203125 7.203125 52.203125 Z M 7.203125 52.203125 "/></g></g></g><g fill="#d4a758" fill-opacity="1"><g transform="translate(715.901915, 928.790588)"><g><path d="M 390.570312 -259.816406 C 391.222656 -249.214844 390.707031 -235.464844 389.027344 -218.566406 C 387.402344 -202.210938 385.019531 -183.703125 381.878906 -163.046875 C 378.757812 -142.507812 375.136719 -120.820312 371.011719 -97.984375 L 358.558594 -29.417969 L 349.871094 19.570312 C 346.878906 36.214844 344.140625 52.148438 341.652344 67.367188 C 339.1875 82.457031 337.269531 95.746094 335.894531 107.230469 C 334.585938 118.167969 334.019531 126.152344 334.191406 131.183594 L 319.199219 131.699219 L 306.175781 124.257812 C 307.074219 122.6875 308.074219 121.015625 309.179688 119.25 L 321.898438 127.199219 L 308.875 119.757812 C 311.746094 114.734375 315.949219 111.480469 321.484375 110.007812 C 326.957031 108.546875 332.175781 109.238281 337.140625 112.078125 C 342.167969 114.949219 345.417969 119.152344 346.894531 124.683594 C 348.351562 130.15625 347.664062 135.375 344.824219 140.34375 C 341.894531 145.226562 338.765625 149.632812 335.4375 153.554688 C 332.179688 157.394531 328.359375 160.011719 323.972656 161.40625 C 319.300781 162.890625 314.503906 162.859375 309.582031 161.304688 L 308.71875 161.03125 L 307.894531 160.65625 C 301.722656 157.851562 297.398438 152.730469 294.917969 145.292969 C 293.242188 140.257812 292.589844 133.078125 292.960938 123.75 C 293.28125 115.777344 294.371094 104.90625 296.234375 91.136719 C 298.058594 77.679688 300.730469 60.46875 304.257812 39.511719 C 307.773438 18.617188 312.339844 -6.777344 317.957031 -36.671875 L 329.625 -103.09375 C 333.613281 -125.417969 337.199219 -146.730469 340.382812 -167.023438 C 343.542969 -187.171875 345.957031 -205.21875 347.632812 -221.164062 C 349.242188 -236.527344 349.777344 -248.484375 349.230469 -257.042969 C 348.957031 -261.03125 348.574219 -263.570312 348.09375 -264.65625 C 348.007812 -264.847656 347.949219 -264.972656 347.914062 -265.03125 C 348.035156 -264.824219 348.210938 -264.582031 348.445312 -264.300781 C 350.222656 -262.148438 352.652344 -260.816406 355.734375 -260.304688 L 358.199219 -275.101562 L 358.199219 -260.101562 L 357.898438 -260.101562 C 359.285156 -260.101562 360.511719 -260.308594 361.578125 -260.726562 L 361.625 -260.707031 C 360.558594 -260.050781 359.074219 -258.90625 357.179688 -257.277344 C 353.179688 -253.835938 347.800781 -247.160156 341.042969 -237.25 C 333.914062 -226.792969 325.394531 -211.753906 315.488281 -192.140625 C 305.292969 -171.746094 292.574219 -142.492188 277.328125 -104.378906 C 262.113281 -66.34375 245.875 -17.367188 228.613281 42.550781 C 227.082031 48.070312 224.050781 52.207031 219.523438 54.964844 C 214.933594 57.757812 209.777344 58.515625 204.046875 57.242188 C 198.382812 55.984375 194.0625 53.171875 191.082031 48.800781 C 188.070312 44.382812 187.042969 39.292969 188.003906 33.535156 C 201.886719 -48.183594 209.320312 -109.382812 210.304688 -150.0625 C 210.683594 -162.230469 210.511719 -171.613281 209.789062 -178.214844 C 209.121094 -184.320312 208.390625 -188.457031 207.601562 -190.625 C 207.199219 -191.734375 206.863281 -192.554688 206.597656 -193.089844 C 206.574219 -193.136719 206.558594 -193.164062 206.550781 -193.175781 C 206.582031 -193.125 206.625 -193.054688 206.675781 -192.976562 C 207.003906 -192.46875 207.425781 -191.960938 207.945312 -191.445312 L 206.292969 -193.09375 L 216.898438 -203.699219 L 216.898438 -188.699219 C 218.339844 -188.699219 219.558594 -188.855469 220.554688 -189.171875 C 220.238281 -189.070312 219.734375 -188.898438 219.042969 -188.65625 C 219.5625 -188.839844 219.976562 -189.023438 220.292969 -189.210938 C 220.210938 -189.164062 220.054688 -189.050781 219.824219 -188.878906 C 218.9375 -188.210938 217.796875 -187.214844 216.398438 -185.894531 C 213.59375 -183.246094 209.648438 -178.171875 204.5625 -170.675781 C 199.191406 -162.761719 192.640625 -151.363281 184.910156 -136.484375 C 177.0625 -121.375 167.804688 -101.671875 157.132812 -77.371094 C 146.25 -52.238281 135.304688 -25.039062 124.289062 4.234375 C 113.261719 33.535156 102.683594 63.585938 92.546875 94.386719 C 82.414062 125.183594 73.179688 155.378906 64.835938 184.96875 L 50.398438 180.898438 L 65.398438 180.898438 L 65.398438 184.015625 L 64.378906 186.636719 C 62.761719 190.800781 61.058594 194.550781 59.273438 197.882812 C 57.425781 201.332031 55.070312 204.082031 52.210938 206.136719 C 48.621094 208.710938 44.617188 210 40.199219 210 C 38.367188 210 36.457031 209.75 34.460938 209.253906 L 33.746094 209.074219 L 33.054688 208.824219 C 28.5625 207.222656 25.035156 204.519531 22.476562 200.726562 C 20.132812 197.25 18.894531 193.246094 18.757812 188.703125 C 18.628906 184.542969 19.128906 178.53125 20.25 170.679688 C 21.691406 161.007812 24.132812 147.265625 27.574219 129.453125 C 33.601562 99.101562 42.429688 57.570312 54.050781 4.871094 C 59.25 -19.328125 64.507812 -43.199219 69.816406 -66.75 L 84.671875 -132.171875 L 96.6875 -183.988281 L 103.90625 -214.367188 C 106.851562 -227.070312 108.367188 -236.433594 108.453125 -242.460938 C 108.492188 -245.335938 108.402344 -247.675781 108.183594 -249.484375 C 108.105469 -250.125 108.019531 -250.640625 107.925781 -251.023438 C 107.90625 -251.097656 107.894531 -251.140625 107.890625 -251.15625 C 107.925781 -251.054688 107.976562 -250.929688 108.042969 -250.785156 C 107.644531 -251.644531 107.339844 -252.246094 107.125 -252.59375 C 107.59375 -251.832031 108.386719 -251.035156 109.5 -250.199219 L 118.5 -262.199219 L 110.445312 -249.546875 C 112.078125 -248.507812 113.671875 -248.035156 115.230469 -248.125 C 115.332031 -248.132812 115.410156 -248.140625 115.46875 -248.148438 C 115.4375 -248.144531 115.386719 -248.132812 115.3125 -248.113281 C 114.96875 -248.027344 114.535156 -247.878906 114.019531 -247.671875 C 110.773438 -246.375 106.789062 -243.933594 102.066406 -240.351562 C 95.148438 -235.027344 87.925781 -227.964844 80.40625 -219.15625 C 72.652344 -210.082031 65.3125 -200.132812 58.382812 -189.3125 C 51.511719 -178.578125 45.683594 -167.726562 40.902344 -156.757812 C 36.277344 -146.148438 33.117188 -136.027344 31.421875 -126.402344 C 29.96875 -118.132812 30.226562 -111.113281 32.195312 -105.347656 C 33.835938 -100.484375 37.042969 -96.789062 41.824219 -94.253906 C 47.996094 -90.980469 56.726562 -89.261719 68.019531 -89.097656 C 73.871094 -89.097656 78.835938 -86.878906 82.90625 -82.4375 C 86.636719 -78.367188 88.5 -73.589844 88.5 -68.101562 C 88.5 -62.101562 86.277344 -57.066406 81.835938 -52.992188 C 77.769531 -49.265625 73.089844 -47.398438 67.800781 -47.398438 L 67.296875 -47.398438 L 67.09375 -47.40625 C 58.6875 -47.632812 49.894531 -48.808594 40.714844 -50.9375 C 30.519531 -53.300781 21.246094 -57.535156 12.894531 -63.640625 C 3.679688 -70.382812 -3.042969 -79.828125 -7.265625 -91.972656 C -10.320312 -101.375 -11.539062 -111.121094 -10.921875 -121.214844 C -10.351562 -130.550781 -8.707031 -139.816406 -5.980469 -149.011719 C -3.40625 -157.703125 -0.445312 -165.886719 2.902344 -173.550781 C 6.167969 -181.03125 9.296875 -187.550781 12.292969 -193.113281 C 20.933594 -208.917969 30.921875 -223.957031 42.253906 -238.226562 C 53.808594 -252.777344 65.363281 -264.523438 76.921875 -273.464844 C 89.503906 -283.085938 100.359375 -288.265625 109.496094 -289 C 118.992188 -289.765625 126.746094 -288.273438 132.75 -284.519531 C 142.84375 -278.082031 148.480469 -267.066406 149.65625 -251.480469 C 150.574219 -239.316406 148.75 -223.722656 144.1875 -204.699219 L 135.652344 -168.324219 L 123.972656 -117.253906 L 110.328125 -57.128906 L 96.085938 6.429688 L 82.605469 68.152344 C 78.332031 87.929688 74.601562 105.972656 71.421875 122.273438 L 56.699219 119.398438 L 42.390625 114.90625 C 50.035156 90.5625 58.082031 66.222656 66.53125 41.882812 C 74.984375 17.519531 83.644531 -6.140625 92.507812 -29.101562 C 101.382812 -52.097656 110.261719 -73.796875 119.148438 -94.191406 C 130.90625 -121.15625 141.28125 -143.0625 150.265625 -159.910156 C 159.390625 -177.023438 167.359375 -190.261719 174.167969 -199.621094 C 181.410156 -209.578125 187.796875 -216.695312 193.328125 -220.96875 C 199.792969 -225.964844 205.667969 -228.855469 210.953125 -229.636719 C 215.617188 -230.328125 219.710938 -230.234375 223.238281 -229.351562 L 219.601562 -214.800781 L 222.742188 -229.46875 C 228.8125 -228.167969 234.246094 -224.75 239.035156 -219.222656 C 243.234375 -214.378906 246.46875 -207.21875 248.738281 -197.742188 C 250.683594 -189.609375 251.820312 -178.5625 252.144531 -164.597656 C 252.457031 -151.164062 251.742188 -134.078125 249.996094 -113.34375 C 248.277344 -92.886719 245.398438 -67.832031 241.363281 -38.179688 L 226.5 -40.199219 L 212.253906 -44.898438 C 224.566406 -82.230469 237.035156 -116.3125 249.671875 -147.136719 C 262.371094 -178.125 274.746094 -204.800781 286.792969 -227.164062 C 299.136719 -250.070312 310.78125 -267.75 321.734375 -280.203125 C 335.351562 -295.6875 348.527344 -302.757812 361.269531 -301.417969 C 366.171875 -300.894531 370.59375 -299.269531 374.53125 -296.535156 C 378.214844 -293.980469 381.277344 -290.582031 383.722656 -286.335938 C 387.523438 -279.738281 389.804688 -270.933594 390.5625 -259.933594 Z M 360.636719 -257.867188 C 360.195312 -264.265625 359.226562 -268.761719 357.726562 -271.363281 C 357.570312 -271.636719 357.429688 -271.839844 357.308594 -271.976562 C 357.320312 -271.96875 357.359375 -271.9375 357.429688 -271.886719 C 357.691406 -271.707031 357.925781 -271.605469 358.128906 -271.582031 C 358.171875 -271.578125 358.199219 -271.574219 358.203125 -271.574219 C 358.097656 -271.566406 357.957031 -271.535156 357.785156 -271.488281 C 357.046875 -271.28125 356.15625 -270.863281 355.105469 -270.226562 C 351.964844 -268.320312 348.351562 -265.042969 344.265625 -260.394531 C 334.816406 -249.652344 324.464844 -233.832031 313.207031 -212.933594 C 301.65625 -191.5 289.730469 -165.773438 277.429688 -135.761719 C 265.0625 -105.585938 252.835938 -72.167969 240.746094 -35.503906 L 211.636719 -42.222656 C 215.601562 -71.367188 218.425781 -95.914062 220.101562 -115.859375 C 221.757812 -135.523438 222.441406 -151.539062 222.152344 -163.902344 C 221.878906 -175.738281 221.015625 -184.691406 219.5625 -190.757812 C 218.90625 -193.492188 218.207031 -195.734375 217.460938 -197.488281 C 217 -198.566406 216.636719 -199.261719 216.363281 -199.574219 C 215.949219 -200.054688 215.628906 -200.367188 215.40625 -200.519531 C 215.640625 -200.359375 215.992188 -200.234375 216.457031 -200.132812 L 216.207031 -200.1875 L 215.960938 -200.246094 C 216.355469 -200.148438 216.632812 -200.101562 216.789062 -200.101562 C 216.449219 -200.101562 215.96875 -200.054688 215.347656 -199.960938 C 215.695312 -200.011719 215.960938 -200.074219 216.144531 -200.140625 C 216.015625 -200.09375 215.816406 -199.996094 215.539062 -199.851562 C 214.5 -199.292969 213.210938 -198.421875 211.671875 -197.230469 C 208.402344 -194.707031 203.988281 -189.621094 198.429688 -181.976562 C 192.441406 -173.738281 185.207031 -161.675781 176.734375 -145.792969 C 168.121094 -129.636719 158.09375 -108.445312 146.652344 -82.210938 C 137.9375 -62.203125 129.21875 -40.902344 120.492188 -18.300781 C 111.753906 4.339844 103.214844 27.679688 94.871094 51.71875 C 86.519531 75.777344 78.566406 99.835938 71.011719 123.894531 L 41.976562 116.527344 C 45.195312 100.027344 48.96875 81.769531 53.296875 61.75 L 66.8125 -0.128906 L 81.070312 -63.769531 L 94.726562 -123.945312 L 106.445312 -175.175781 L 115.015625 -211.699219 C 118.847656 -227.675781 120.425781 -240.183594 119.742188 -249.222656 C 119.476562 -252.722656 118.898438 -255.441406 118.003906 -257.375 C 117.585938 -258.289062 117.199219 -258.855469 116.851562 -259.078125 C 117.003906 -258.984375 117.113281 -258.925781 117.1875 -258.898438 C 117.035156 -258.953125 116.8125 -259.003906 116.511719 -259.050781 C 115.34375 -259.234375 113.808594 -259.253906 111.90625 -259.097656 C 110.765625 -259.007812 109.019531 -258.367188 106.671875 -257.179688 C 103.398438 -255.519531 99.601562 -253.039062 95.277344 -249.734375 C 85.636719 -242.277344 75.792969 -232.222656 65.746094 -219.570312 C 55.480469 -206.640625 46.464844 -193.082031 38.707031 -178.886719 C 36.101562 -174.050781 33.332031 -168.269531 30.398438 -161.546875 C 27.542969 -155.015625 25.007812 -147.996094 22.78125 -140.488281 C 20.707031 -133.480469 19.453125 -126.449219 19.023438 -119.386719 C 18.636719 -113.078125 19.320312 -107.226562 21.066406 -101.828125 C 23.242188 -95.574219 26.421875 -90.917969 30.605469 -87.859375 C 35.652344 -84.164062 41.28125 -81.601562 47.484375 -80.164062 C 54.707031 -78.488281 61.511719 -77.566406 67.90625 -77.394531 L 67.5 -62.398438 L 67.5 -77.398438 L 67.800781 -77.398438 C 65.308594 -77.398438 63.230469 -76.636719 61.5625 -75.105469 C 59.519531 -73.234375 58.5 -70.898438 58.5 -68.101562 C 58.5 -65.808594 59.265625 -63.832031 60.792969 -62.164062 C 62.664062 -60.121094 64.929688 -59.101562 67.582031 -59.101562 C 51.472656 -59.335938 38.203125 -62.21875 27.773438 -67.746094 C 15.957031 -74.011719 7.964844 -83.316406 3.804688 -95.652344 C 0.175781 -106.285156 -0.46875 -118.265625 1.875 -131.597656 C 3.984375 -143.570312 7.824219 -155.953125 13.398438 -168.742188 C 18.816406 -181.171875 25.390625 -193.421875 33.117188 -205.488281 C 40.789062 -217.46875 48.949219 -228.519531 57.59375 -238.640625 C 66.472656 -249.035156 75.253906 -257.574219 83.933594 -264.25 C 90.808594 -269.464844 97.125 -273.226562 102.878906 -275.527344 C 112.136719 -279.230469 120.027344 -279.007812 126.554688 -274.855469 L 127.039062 -274.546875 L 127.5 -274.199219 C 130.3125 -272.089844 132.894531 -268.496094 135.253906 -263.417969 C 137.515625 -258.546875 138.582031 -251.421875 138.449219 -242.039062 C 138.332031 -233.867188 136.546875 -222.332031 133.09375 -207.433594 L 125.914062 -177.210938 L 113.925781 -125.527344 L 99.082031 -60.148438 C 93.792969 -36.699219 88.550781 -12.871094 83.347656 11.332031 C 71.769531 63.828125 62.996094 105.097656 57.027344 135.144531 C 53.667969 152.535156 51.308594 165.792969 49.949219 174.921875 C 49.070312 181.066406 48.667969 185.359375 48.742188 187.796875 C 48.707031 186.554688 48.242188 185.273438 47.347656 183.949219 C 46.238281 182.304688 44.835938 181.179688 43.144531 180.574219 L 38.101562 194.699219 L 41.738281 180.148438 C 41.34375 180.050781 40.832031 180 40.199219 180 C 38.183594 180 36.351562 180.589844 34.714844 181.765625 C 33.804688 182.417969 33.175781 183.070312 32.828125 183.714844 C 34.042969 181.449219 35.238281 178.800781 36.421875 175.761719 L 50.398438 181.199219 L 35.398438 181.199219 L 35.398438 178.828125 L 35.960938 176.832031 C 44.421875 146.824219 53.785156 116.214844 64.050781 85.011719 C 74.316406 53.8125 85.035156 23.363281 96.210938 -6.332031 C 107.398438 -36.0625 118.546875 -63.761719 129.664062 -89.429688 C 140.597656 -114.328125 150.136719 -134.625 158.289062 -150.316406 C 166.558594 -166.234375 173.707031 -178.636719 179.738281 -187.523438 C 186.050781 -196.828125 191.40625 -203.554688 195.800781 -207.707031 C 200.941406 -212.558594 205.359375 -215.640625 209.058594 -216.945312 C 212.371094 -218.113281 214.988281 -218.699219 216.898438 -218.699219 L 223.113281 -218.699219 L 229.15625 -212.65625 C 231.625 -210.1875 233.839844 -206.261719 235.796875 -200.875 C 237.410156 -196.445312 238.679688 -189.980469 239.609375 -181.484375 C 240.488281 -173.484375 240.714844 -162.769531 240.296875 -149.335938 C 239.277344 -107.214844 231.710938 -44.613281 217.597656 38.464844 C 217.710938 37.777344 217.699219 37.003906 217.566406 36.136719 C 217.332031 34.628906 216.765625 33.21875 215.867188 31.898438 C 214.980469 30.597656 213.890625 29.570312 212.597656 28.808594 C 211.875 28.382812 211.195312 28.097656 210.554688 27.957031 C 209.878906 27.808594 209.105469 27.777344 208.238281 27.863281 C 206.722656 28.019531 205.285156 28.507812 203.925781 29.335938 C 202.585938 30.152344 201.507812 31.179688 200.6875 32.425781 C 200.230469 33.113281 199.933594 33.722656 199.785156 34.246094 C 217.324219 -26.632812 233.886719 -76.554688 249.472656 -115.519531 C 265.027344 -154.40625 278.105469 -184.453125 288.710938 -205.660156 C 299.207031 -226.445312 308.386719 -242.609375 316.257812 -254.148438 C 324.5 -266.238281 331.621094 -274.863281 337.621094 -280.023438 C 340.726562 -282.695312 343.492188 -284.777344 345.921875 -286.269531 C 350.082031 -288.824219 354.074219 -290.101562 357.898438 -290.101562 L 359.441406 -290.101562 L 360.664062 -289.894531 C 367.175781 -288.8125 372.121094 -284.460938 375.507812 -276.84375 C 377.425781 -272.53125 378.644531 -266.566406 379.167969 -258.957031 C 379.824219 -248.714844 379.257812 -235.074219 377.46875 -218.035156 C 375.742188 -201.582031 373.257812 -183.027344 370.019531 -162.375 C 366.800781 -141.871094 363.1875 -120.378906 359.171875 -97.90625 L 347.441406 -31.128906 C 341.859375 -1.421875 337.328125 23.78125 333.84375 44.488281 C 330.367188 65.128906 327.742188 82.019531 325.964844 95.160156 C 324.226562 107.992188 323.21875 117.921875 322.9375 124.949219 C 322.710938 130.621094 322.859375 134.242188 323.378906 135.804688 C 323.425781 135.941406 323.453125 136.023438 323.46875 136.050781 C 323.390625 135.894531 323.269531 135.710938 323.113281 135.503906 C 322.417969 134.597656 321.480469 133.878906 320.308594 133.34375 L 314.101562 147 L 318.617188 132.695312 C 317.496094 132.339844 316.246094 132.382812 314.875 132.820312 C 313.792969 133.164062 313.019531 133.605469 312.5625 134.144531 C 314.832031 131.46875 316.90625 128.574219 318.777344 125.457031 C 317.539062 127.625 317.246094 129.945312 317.90625 132.414062 C 318.582031 134.949219 320.03125 136.851562 322.257812 138.125 C 324.425781 139.363281 326.746094 139.652344 329.214844 138.992188 C 331.75 138.316406 333.652344 136.867188 334.921875 134.640625 L 334.777344 134.898438 L 334.621094 135.148438 C 333.722656 136.582031 332.925781 137.914062 332.222656 139.140625 L 306.027344 184.984375 L 304.207031 132.21875 C 303.980469 125.648438 304.613281 116.132812 306.105469 103.667969 C 307.53125 91.753906 309.511719 78.042969 312.046875 62.53125 C 314.558594 47.152344 317.320312 31.085938 320.332031 14.332031 L 329.042969 -34.78125 L 341.488281 -103.316406 C 345.5625 -125.878906 349.140625 -147.292969 352.21875 -167.554688 C 355.28125 -187.699219 357.597656 -205.691406 359.171875 -221.535156 C 360.695312 -236.835938 361.179688 -248.984375 360.628906 -257.984375 Z M 360.636719 -257.867188 "/></g></g></g><g fill="#d4a758" fill-opacity="1"><g transform="translate(715.901915, 928.790588)"><g><path d="M 375.59375 -258.90625 C 376.195312 -249.101562 375.695312 -236.148438 374.09375 -220.046875 C 372.5 -203.953125 370.148438 -185.703125 367.046875 -165.296875 C 363.953125 -144.898438 360.351562 -123.347656 356.25 -100.640625 C 352.144531 -77.941406 347.992188 -55.09375 343.796875 -32.09375 C 340.992188 -16.09375 338.09375 0.253906 335.09375 16.953125 C 332.09375 33.648438 329.34375 49.648438 326.84375 64.953125 C 324.34375 80.253906 322.394531 93.753906 321 105.453125 C 319.601562 117.148438 319.003906 125.898438 319.203125 131.703125 C 320.003906 130.296875 320.90625 128.796875 321.90625 127.203125 C 322.695312 125.796875 323.84375 124.894531 325.34375 124.5 C 326.84375 124.101562 328.296875 124.300781 329.703125 125.09375 C 331.097656 125.894531 331.992188 127.046875 332.390625 128.546875 C 332.796875 130.046875 332.597656 131.5 331.796875 132.90625 C 329.398438 136.90625 326.800781 140.550781 324 143.84375 C 321.195312 147.144531 317.894531 148.195312 314.09375 147 C 311.894531 146 310.242188 143.847656 309.140625 140.546875 C 308.046875 137.242188 307.648438 131.84375 307.953125 124.34375 C 308.253906 116.84375 309.300781 106.441406 311.09375 93.140625 C 312.894531 79.847656 315.546875 62.800781 319.046875 42 C 322.546875 21.195312 327.097656 -4.101562 332.703125 -33.90625 C 336.503906 -55.90625 340.40625 -78.101562 344.40625 -100.5 C 348.40625 -122.894531 352.003906 -144.289062 355.203125 -164.6875 C 358.398438 -185.09375 360.847656 -203.394531 362.546875 -219.59375 C 364.242188 -235.800781 364.796875 -248.601562 364.203125 -258 C 363.796875 -263.800781 362.992188 -268.050781 361.796875 -270.75 C 360.597656 -273.445312 359.398438 -274.894531 358.203125 -275.09375 C 358.203125 -275.09375 358.101562 -275.09375 357.90625 -275.09375 C 355.90625 -275.09375 352.40625 -272.941406 347.40625 -268.640625 C 342.40625 -264.347656 336.15625 -256.703125 328.65625 -245.703125 C 321.15625 -234.703125 312.300781 -219.101562 302.09375 -198.90625 C 291.695312 -178.101562 278.796875 -148.453125 263.390625 -109.953125 C 247.992188 -71.453125 231.597656 -22 214.203125 38.40625 C 213.203125 42 210.898438 43.394531 207.296875 42.59375 C 203.703125 41.800781 202.203125 39.601562 202.796875 36 C 216.796875 -46.394531 224.296875 -108.296875 225.296875 -149.703125 C 225.703125 -162.503906 225.503906 -172.550781 224.703125 -179.84375 C 223.898438 -187.144531 222.898438 -192.445312 221.703125 -195.75 C 220.503906 -199.050781 219.453125 -201.148438 218.546875 -202.046875 C 217.648438 -202.953125 217.101562 -203.503906 216.90625 -203.703125 C 216.695312 -203.703125 215.742188 -203.398438 214.046875 -202.796875 C 212.347656 -202.203125 209.695312 -200.203125 206.09375 -196.796875 C 202.5 -193.398438 197.847656 -187.5 192.140625 -179.09375 C 186.441406 -170.695312 179.59375 -158.796875 171.59375 -143.390625 C 163.59375 -127.992188 154.195312 -108 143.40625 -83.40625 C 132.40625 -58 121.351562 -30.546875 110.25 -1.046875 C 99.144531 28.453125 88.492188 58.703125 78.296875 89.703125 C 68.097656 120.703125 58.800781 151.101562 50.40625 180.90625 C 50.40625 180.90625 50.40625 181.003906 50.40625 181.203125 C 49 184.796875 47.546875 187.992188 46.046875 190.796875 C 44.546875 193.597656 42.597656 195 40.203125 195 C 39.597656 195 38.894531 194.898438 38.09375 194.703125 C 35.300781 193.703125 33.851562 191.550781 33.75 188.25 C 33.644531 184.945312 34.09375 179.796875 35.09375 172.796875 C 36.5 163.398438 38.898438 149.898438 42.296875 132.296875 C 48.296875 102.097656 57.097656 60.695312 68.703125 8.09375 C 73.898438 -16.101562 79.148438 -39.953125 84.453125 -63.453125 C 89.753906 -86.953125 94.703125 -108.75 99.296875 -128.84375 C 103.898438 -148.945312 107.898438 -166.195312 111.296875 -180.59375 C 114.703125 -195 117.101562 -205.101562 118.5 -210.90625 C 121.695312 -224.695312 123.34375 -235.144531 123.4375 -242.25 C 123.539062 -249.351562 122.941406 -254.300781 121.640625 -257.09375 C 120.347656 -259.894531 119.300781 -261.597656 118.5 -262.203125 C 116.300781 -263.597656 112.953125 -263.394531 108.453125 -261.59375 C 103.953125 -259.800781 98.800781 -256.703125 93 -252.296875 C 85.195312 -246.296875 77.195312 -238.492188 69 -228.890625 C 60.800781 -219.296875 53.050781 -208.796875 45.75 -197.390625 C 38.445312 -185.992188 32.242188 -174.445312 27.140625 -162.75 C 22.046875 -151.050781 18.546875 -139.800781 16.640625 -129 C 14.742188 -118.195312 15.195312 -108.695312 18 -100.5 C 23.800781 -83.300781 40.398438 -74.5 67.796875 -74.09375 C 69.398438 -74.09375 70.75 -73.492188 71.84375 -72.296875 C 72.945312 -71.097656 73.5 -69.695312 73.5 -68.09375 C 73.5 -66.5 72.898438 -65.148438 71.703125 -64.046875 C 70.503906 -62.953125 69.203125 -62.40625 67.796875 -62.40625 C 67.796875 -62.40625 67.742188 -62.40625 67.640625 -62.40625 C 67.546875 -62.40625 67.5 -62.40625 67.5 -62.40625 C 60.101562 -62.601562 52.300781 -63.648438 44.09375 -65.546875 C 35.894531 -67.453125 28.445312 -70.851562 21.75 -75.75 C 15.050781 -80.644531 10.101562 -87.695312 6.90625 -96.90625 C 4.5 -104.300781 3.546875 -112.097656 4.046875 -120.296875 C 4.546875 -128.492188 5.992188 -136.644531 8.390625 -144.75 C 10.796875 -152.851562 13.546875 -160.453125 16.640625 -167.546875 C 19.742188 -174.648438 22.695312 -180.800781 25.5 -186 C 33.695312 -201 43.195312 -215.296875 54 -228.890625 C 64.800781 -242.492188 75.5 -253.394531 86.09375 -261.59375 C 96.300781 -269.394531 104.503906 -273.546875 110.703125 -274.046875 C 116.898438 -274.546875 121.597656 -273.796875 124.796875 -271.796875 C 136.398438 -264.398438 138 -243.203125 129.59375 -208.203125 C 127.394531 -199.003906 124.546875 -186.851562 121.046875 -171.75 C 117.546875 -156.644531 113.644531 -139.59375 109.34375 -120.59375 C 105.050781 -101.59375 100.503906 -81.539062 95.703125 -60.4375 C 90.898438 -39.34375 86.148438 -18.148438 81.453125 3.140625 C 76.753906 24.441406 72.253906 45.039062 67.953125 64.9375 C 63.648438 84.84375 59.898438 103 56.703125 119.40625 C 64.296875 95.195312 72.289062 70.992188 80.6875 46.796875 C 89.09375 22.597656 97.695312 -0.898438 106.5 -23.703125 C 115.300781 -46.503906 124.101562 -68.003906 132.90625 -88.203125 C 144.5 -114.796875 154.695312 -136.34375 163.5 -152.84375 C 172.300781 -169.34375 179.898438 -181.992188 186.296875 -190.796875 C 192.703125 -199.597656 198.101562 -205.695312 202.5 -209.09375 C 206.894531 -212.5 210.441406 -214.398438 213.140625 -214.796875 C 215.847656 -215.203125 218 -215.203125 219.59375 -214.796875 C 222.394531 -214.203125 225.09375 -212.40625 227.6875 -209.40625 C 230.289062 -206.40625 232.441406 -201.351562 234.140625 -194.25 C 235.847656 -187.144531 236.847656 -177.144531 237.140625 -164.25 C 237.441406 -151.351562 236.742188 -134.800781 235.046875 -114.59375 C 233.347656 -94.394531 230.5 -69.597656 226.5 -40.203125 C 238.695312 -77.203125 251.046875 -110.953125 263.546875 -141.453125 C 276.046875 -171.953125 288.195312 -198.148438 300 -220.046875 C 311.800781 -241.953125 322.800781 -258.703125 333 -270.296875 C 343.195312 -281.898438 352.097656 -287.300781 359.703125 -286.5 C 369.097656 -285.5 374.394531 -276.300781 375.59375 -258.90625 Z M 375.59375 -258.90625 "/></g></g></g><g fill="#d4a758" fill-opacity="1"><g transform="translate(391.599756, 924.398636)"><g><path d="M 269.609375 -302.9375 C 273.796875 -301.648438 277.183594 -299.421875 279.773438 -296.261719 C 282.566406 -292.847656 284.054688 -288.84375 284.238281 -284.25 C 284.375 -280.785156 284.171875 -277.273438 283.625 -273.71875 L 283.574219 -273.386719 L 283.507812 -273.058594 C 282.699219 -269.007812 281.488281 -263.160156 279.878906 -255.511719 L 273.996094 -228.953125 L 266.324219 -195.269531 L 252.367188 -134.636719 C 247.285156 -112.511719 242.203125 -89.585938 237.117188 -65.855469 C 232.035156 -42.148438 227.253906 -18.789062 222.773438 4.21875 C 218.308594 27.144531 214.488281 48.621094 211.316406 68.648438 C 208.175781 88.46875 206.019531 105.59375 204.851562 120.011719 C 204.003906 131.710938 204.355469 139.855469 205.910156 144.441406 C 206.761719 146.957031 207.457031 148.734375 208 149.773438 C 208.023438 149.824219 208.046875 149.863281 208.0625 149.894531 C 208.058594 149.886719 208.050781 149.871094 208.03125 149.84375 C 207.898438 149.632812 207.726562 149.398438 207.511719 149.140625 C 205.9375 147.246094 203.839844 145.925781 201.222656 145.175781 L 201.535156 145.265625 L 201.84375 145.371094 C 199.445312 144.570312 197.039062 144.417969 194.617188 144.917969 C 193.546875 145.136719 192.5625 145.472656 191.667969 145.921875 C 191.328125 146.089844 191.042969 146.253906 190.816406 146.410156 C 190.816406 146.410156 190.859375 146.375 190.941406 146.308594 C 190.78125 146.4375 190.683594 146.523438 190.636719 146.574219 C 190.769531 146.429688 190.9375 146.222656 191.148438 145.949219 C 191.792969 145.105469 192.546875 143.96875 193.417969 142.53125 C 195.199219 139.589844 197.320312 134.6875 199.78125 127.832031 C 201.808594 122.421875 205.28125 118.488281 210.191406 116.035156 C 215.492188 113.382812 220.984375 113.125 226.667969 115.253906 L 221.398438 129.300781 L 225.519531 114.878906 C 231.304688 116.53125 235.515625 120.171875 238.144531 125.808594 C 240.734375 131.363281 240.851562 136.894531 238.488281 142.410156 L 224.699219 136.5 L 238.878906 141.390625 C 234.339844 154.554688 229.316406 164.6875 223.800781 171.796875 C 216.296875 181.464844 207.597656 186.300781 197.699219 186.300781 C 195.710938 186.300781 193.730469 186.101562 191.757812 185.707031 L 191.578125 185.671875 L 191.394531 185.632812 C 184.992188 184.1875 179.566406 180.800781 175.121094 175.476562 C 171.550781 171.195312 168.746094 165.714844 166.703125 159.03125 C 163.246094 147.710938 162.195312 133.601562 163.546875 116.703125 C 164.574219 103.179688 166.410156 87.585938 169.066406 69.921875 C 171.691406 52.445312 174.871094 33.71875 178.605469 13.746094 C 182.324219 -6.164062 186.394531 -26.667969 190.820312 -47.777344 C 195.230469 -68.835938 199.742188 -89.742188 204.355469 -110.503906 C 208.96875 -131.246094 213.476562 -151.140625 217.886719 -170.183594 L 232.5 -166.800781 L 246.695312 -161.957031 C 234.984375 -127.628906 223.011719 -95.90625 210.777344 -66.789062 C 198.484375 -37.527344 186.015625 -11.273438 173.378906 11.964844 C 156.445312 43.355469 139.792969 68.285156 123.425781 86.75 C 105.769531 106.667969 88.640625 118.699219 72.039062 122.851562 C 62.914062 124.992188 54.378906 124.886719 46.4375 122.53125 C 38.433594 120.160156 31.304688 115.632812 25.050781 108.953125 C 13.949219 97.109375 6.558594 79.46875 2.882812 56.023438 C -0.5 34.464844 -0.996094 8.449219 1.394531 -22.023438 C 3.746094 -51.976562 8.839844 -85.421875 16.675781 -122.363281 C 24.476562 -159.136719 34.949219 -198.351562 48.09375 -240.011719 L 62.398438 -235.5 L 47.847656 -239.136719 C 49.363281 -245.199219 52.878906 -249.609375 58.390625 -252.367188 C 63.101562 -254.722656 68.050781 -255.25 73.238281 -253.953125 L 74.066406 -253.746094 L 74.867188 -253.445312 C 80.144531 -251.464844 84.011719 -248.019531 86.464844 -243.109375 C 88.90625 -238.230469 89.390625 -233.21875 87.921875 -228.078125 L 87.871094 -227.894531 L 87.8125 -227.710938 C 68.835938 -167.21875 55.902344 -114.992188 49.019531 -71.027344 C 42.207031 -27.53125 39.949219 7.414062 42.242188 33.800781 C 43.351562 46.539062 45.171875 57.027344 47.710938 65.257812 C 49.863281 72.246094 52.371094 77.234375 55.234375 80.226562 C 56.355469 81.425781 57.386719 82.164062 58.328125 82.441406 C 59.320312 82.734375 60.621094 82.691406 62.226562 82.308594 C 65.765625 81.421875 69.953125 79.171875 74.789062 75.550781 C 80.417969 71.339844 86.546875 65.492188 93.167969 58.011719 C 107.003906 42.371094 122 19.605469 138.152344 -10.28125 C 154.546875 -40.617188 171.429688 -78.382812 188.796875 -123.582031 C 206.234375 -168.949219 223.488281 -221.914062 240.5625 -282.472656 L 255 -278.398438 L 240 -278.398438 L 240 -281.589844 L 241.074219 -284.269531 C 242.523438 -287.894531 244.0625 -291.148438 245.691406 -294.03125 C 248.316406 -298.671875 252.082031 -301.734375 256.996094 -303.21875 C 261.113281 -304.464844 265.429688 -304.335938 269.945312 -302.832031 L 265.199219 -288.601562 Z M 260.789062 -274.261719 L 260.621094 -274.316406 L 260.457031 -274.371094 C 261.972656 -273.863281 263.710938 -273.910156 265.679688 -274.503906 C 268.441406 -275.339844 270.484375 -276.929688 271.808594 -279.269531 C 270.839844 -277.554688 269.878906 -275.507812 268.925781 -273.128906 L 255 -278.699219 L 270 -278.699219 L 270 -276.324219 L 269.4375 -274.328125 C 252.113281 -212.886719 234.566406 -159.050781 216.800781 -112.820312 C 198.972656 -66.417969 181.550781 -27.484375 164.546875 3.980469 C 147.300781 35.894531 130.996094 60.527344 115.632812 77.890625 C 98.980469 96.710938 83.492188 107.914062 69.175781 111.492188 C 62.378906 113.109375 55.929688 113.015625 49.820312 111.210938 C 43.664062 109.386719 38.242188 105.976562 33.566406 100.972656 C 27.429688 94.5625 22.585938 85.601562 19.039062 74.089844 C 15.875 63.824219 13.648438 51.261719 12.355469 36.398438 C 9.851562 7.585938 12.191406 -29.769531 19.378906 -75.671875 C 26.496094 -121.105469 39.765625 -174.78125 59.1875 -236.691406 L 73.5 -232.199219 L 59.078125 -236.320312 C 58.410156 -233.980469 58.59375 -231.769531 59.632812 -229.691406 C 60.691406 -227.578125 62.257812 -226.132812 64.332031 -225.355469 L 69.601562 -239.398438 L 65.960938 -224.847656 C 67.949219 -224.351562 69.898438 -224.578125 71.808594 -225.535156 C 74.523438 -226.890625 76.238281 -229 76.953125 -231.863281 L 76.839844 -231.421875 L 76.703125 -230.988281 C 63.851562 -190.246094 53.625 -151.964844 46.023438 -116.136719 C 38.460938 -80.476562 33.554688 -48.324219 31.304688 -19.675781 C 29.097656 8.453125 29.5 32.136719 32.519531 51.375 C 35.242188 68.734375 40.050781 81.089844 46.949219 88.449219 C 49.496094 91.167969 52.164062 92.9375 54.960938 93.769531 C 57.820312 94.613281 61.085938 94.609375 64.761719 93.746094 C 75.359375 91.097656 87.429688 82.132812 100.976562 66.851562 C 115.808594 50.117188 131.15625 27.042969 147.023438 -2.367188 C 159.183594 -24.726562 171.214844 -50.074219 183.121094 -78.410156 C 195.085938 -106.890625 206.816406 -137.96875 218.304688 -171.644531 L 247.113281 -163.414062 C 242.722656 -144.460938 238.234375 -124.652344 233.644531 -103.996094 C 229.054688 -83.355469 224.570312 -62.566406 220.179688 -41.625 C 215.804688 -20.730469 211.773438 -0.4375 208.09375 19.253906 C 204.425781 38.878906 201.308594 57.253906 198.734375 74.378906 C 196.1875 91.316406 194.425781 106.222656 193.453125 119.097656 C 192.402344 132.199219 193.050781 142.589844 195.394531 150.269531 C 196.253906 153.085938 197.175781 155.078125 198.152344 156.25 C 198.296875 156.421875 198.382812 156.519531 198.421875 156.539062 C 198.292969 156.460938 198.15625 156.402344 198.003906 156.367188 L 194.699219 171 L 197.640625 156.292969 C 197.671875 156.296875 197.691406 156.300781 197.699219 156.300781 C 197.496094 156.300781 197.304688 156.328125 197.125 156.378906 C 197.085938 156.390625 197.058594 156.402344 197.042969 156.40625 C 197.078125 156.390625 197.128906 156.363281 197.195312 156.324219 C 198.003906 155.828125 198.972656 154.855469 200.097656 153.40625 C 203.585938 148.910156 207.058594 141.648438 210.519531 131.609375 L 210.699219 131.09375 L 210.914062 130.589844 C 209.75 133.304688 209.765625 135.9375 210.957031 138.492188 C 211.460938 139.574219 212.199219 140.554688 213.171875 141.433594 C 214.375 142.519531 215.742188 143.285156 217.277344 143.722656 L 216.699219 143.558594 L 216.132812 143.34375 C 218.617188 144.277344 221.109375 144.117188 223.609375 142.867188 C 225.71875 141.808594 227.191406 140.175781 228.019531 137.96875 C 224.878906 146.710938 221.902344 153.410156 219.082031 158.066406 C 215.882812 163.355469 212.808594 167.195312 209.859375 169.589844 C 204 174.351562 198.164062 175.765625 192.355469 173.832031 L 197.101562 159.601562 L 192.980469 174.023438 C 188.148438 172.640625 184.289062 169.183594 181.402344 163.652344 C 180.144531 161.238281 178.839844 158.042969 177.492188 154.058594 C 174.644531 145.644531 173.796875 133.488281 174.949219 117.585938 C 176.179688 102.40625 178.425781 84.53125 181.683594 63.953125 C 184.914062 43.578125 188.792969 21.753906 193.328125 -1.519531 C 197.84375 -24.710938 202.664062 -48.25 207.78125 -72.144531 C 212.898438 -96.015625 218.015625 -119.089844 223.132812 -141.363281 L 237.074219 -201.929688 L 244.707031 -235.445312 L 250.523438 -261.691406 C 252.109375 -269.242188 253.300781 -274.992188 254.089844 -278.941406 L 268.800781 -276 L 253.972656 -278.28125 C 254.226562 -279.925781 254.324219 -281.515625 254.261719 -283.050781 C 254.347656 -280.957031 255.109375 -279.027344 256.554688 -277.265625 C 257.789062 -275.75 259.203125 -274.75 260.789062 -274.261719 Z M 260.789062 -274.261719 "/></g></g></g><g fill="#d4a758" fill-opacity="1"><g transform="translate(391.599756, 924.398636)"><g><path d="M 265.203125 -288.59375 C 267.796875 -287.800781 269.144531 -286.15625 269.25 -283.65625 C 269.351562 -281.15625 269.203125 -278.601562 268.796875 -276 C 267.992188 -272 266.796875 -266.195312 265.203125 -258.59375 C 263.597656 -251.195312 261.644531 -242.398438 259.34375 -232.203125 C 257.050781 -222.003906 254.503906 -210.800781 251.703125 -198.59375 C 247.503906 -180.394531 242.851562 -160.195312 237.75 -138 C 232.644531 -115.800781 227.539062 -92.800781 222.4375 -69 C 217.34375 -45.195312 212.546875 -21.75 208.046875 1.34375 C 203.546875 24.445312 199.695312 46.097656 196.5 66.296875 C 193.300781 86.492188 191.101562 103.992188 189.90625 118.796875 C 188.90625 132.597656 189.503906 142.75 191.703125 149.25 C 193.898438 155.75 195.695312 159.195312 197.09375 159.59375 C 197.695312 159.800781 198.796875 159.253906 200.390625 157.953125 C 201.992188 156.648438 203.945312 154.097656 206.25 150.296875 C 208.550781 146.492188 211.101562 140.695312 213.90625 132.90625 C 214.5 131.300781 215.492188 130.148438 216.890625 129.453125 C 218.296875 128.753906 219.800781 128.703125 221.40625 129.296875 C 222.800781 129.703125 223.847656 130.65625 224.546875 132.15625 C 225.242188 133.65625 225.296875 135.101562 224.703125 136.5 C 216.703125 159.695312 207.703125 171.296875 197.703125 171.296875 C 196.703125 171.296875 195.703125 171.195312 194.703125 171 C 188.503906 169.601562 183.953125 164.15625 181.046875 154.65625 C 178.148438 145.15625 177.300781 132.90625 178.5 117.90625 C 179.5 104.695312 181.296875 89.441406 183.890625 72.140625 C 186.492188 54.847656 189.644531 36.300781 193.34375 16.5 C 197.050781 -3.300781 201.101562 -23.703125 205.5 -44.703125 C 209.894531 -65.703125 214.394531 -86.550781 219 -107.25 C 223.601562 -127.945312 228.101562 -147.796875 232.5 -166.796875 C 220.894531 -132.796875 209.039062 -101.394531 196.9375 -72.59375 C 184.84375 -43.800781 172.597656 -18.003906 160.203125 4.796875 C 143.796875 35.203125 127.789062 59.203125 112.1875 76.796875 C 96.59375 94.398438 82 104.898438 68.40625 108.296875 C 55.601562 111.296875 44.800781 108.097656 36 98.703125 C 27 89.097656 20.898438 74.09375 17.703125 53.6875 C 14.503906 33.289062 14.050781 8.445312 16.34375 -20.84375 C 18.644531 -50.144531 23.644531 -82.945312 31.34375 -119.25 C 39.050781 -155.550781 49.40625 -194.300781 62.40625 -235.5 C 62.800781 -237.101562 63.695312 -238.253906 65.09375 -238.953125 C 66.5 -239.648438 68 -239.800781 69.59375 -239.40625 C 71.195312 -238.800781 72.347656 -237.796875 73.046875 -236.390625 C 73.742188 -234.992188 73.894531 -233.597656 73.5 -232.203125 C 54.300781 -171.003906 41.203125 -118.050781 34.203125 -73.34375 C 27.203125 -28.644531 24.898438 7.5 27.296875 35.09375 C 29.703125 62.695312 35.40625 81.195312 44.40625 90.59375 C 50.195312 96.800781 57.296875 98.90625 65.703125 96.90625 C 76.898438 94.101562 89.796875 84.453125 104.390625 67.953125 C 118.992188 51.453125 134.644531 27.753906 151.34375 -3.140625 C 168.050781 -34.046875 185.203125 -72.398438 202.796875 -118.203125 C 220.398438 -164.003906 237.800781 -217.40625 255 -278.40625 C 255 -278.40625 255 -278.503906 255 -278.703125 C 256.195312 -281.703125 257.445312 -284.347656 258.75 -286.640625 C 260.050781 -288.941406 262.203125 -289.59375 265.203125 -288.59375 Z M 265.203125 -288.59375 "/></g></g></g><g fill="#d4a758" fill-opacity="1"><g transform="translate(146.407056, 956.625594)"><g><path d="M 237 31.800781 C 242.742188 31.800781 247.628906 33.816406 251.65625 37.84375 C 255.683594 41.871094 257.699219 46.757812 257.699219 52.5 C 257.699219 58.5 255.480469 63.535156 251.035156 67.605469 C 246.96875 71.335938 242.191406 73.199219 236.699219 73.199219 C 228.207031 73.035156 218.398438 75.019531 207.28125 79.160156 C 194.992188 83.730469 182.132812 89.566406 168.710938 96.660156 C 154.820312 104.003906 141.328125 111.34375 128.234375 118.683594 C 110.480469 128.773438 94.394531 137.472656 79.984375 144.777344 C 63.652344 153.058594 49.390625 157.199219 37.199219 157.199219 C 28.566406 157.199219 21.140625 154.953125 14.917969 150.460938 L 14.765625 150.351562 L 14.617188 150.238281 C 0.285156 139.332031 -3.460938 118.9375 3.378906 89.054688 C 6.808594 74.527344 10.878906 57.789062 15.59375 38.832031 C 20.308594 19.867188 25.476562 -0.300781 31.09375 -21.664062 L 48.355469 -86.507812 C 54.285156 -108.515625 60.160156 -129.660156 65.984375 -149.941406 C 73.8125 -177.039062 80.589844 -199.882812 86.316406 -218.464844 C 92.066406 -237.136719 97.023438 -252.457031 101.179688 -264.421875 C 105.410156 -276.589844 109 -286.054688 111.957031 -292.8125 C 115.210938 -300.246094 118.171875 -305.769531 120.847656 -309.378906 C 124.800781 -314.71875 129 -318.070312 133.4375 -319.4375 C 136.996094 -320.53125 140.539062 -320.785156 144.066406 -320.195312 C 149.808594 -319.289062 154.445312 -316.550781 157.972656 -311.976562 C 160.765625 -308.359375 162.472656 -303.902344 163.097656 -298.601562 C 163.808594 -292.550781 163.730469 -283.648438 162.859375 -271.890625 L 162.832031 -271.515625 L 162.785156 -271.140625 C 162.09375 -265.625 159.632812 -261.101562 155.402344 -257.578125 C 150.867188 -253.796875 145.648438 -252.277344 139.738281 -253.015625 L 141.601562 -267.898438 L 141.601562 -252.898438 C 135.601562 -252.898438 130.566406 -255.121094 126.492188 -259.5625 C 122.269531 -264.171875 120.542969 -269.570312 121.316406 -275.761719 C 121.675781 -279.003906 121.949219 -282.019531 122.132812 -284.796875 L 137.101562 -283.800781 L 150.808594 -277.707031 C 148.554688 -272.640625 145.441406 -264.578125 141.464844 -253.523438 C 137.441406 -242.339844 132.367188 -226.808594 126.234375 -206.929688 C 120.066406 -186.933594 112.496094 -161.1875 103.527344 -129.691406 C 97.945312 -110.152344 92.3125 -89.867188 86.632812 -68.839844 L 69.992188 -6.484375 C 64.617188 13.917969 59.691406 33.136719 55.207031 51.167969 C 50.738281 69.140625 47.019531 84.859375 44.046875 98.332031 C 42.460938 105.394531 41.625 110.773438 41.546875 114.46875 C 41.511719 116.132812 41.554688 117.488281 41.675781 118.535156 C 41.710938 118.847656 41.75 119.085938 41.785156 119.253906 C 41.765625 119.167969 41.714844 119.023438 41.632812 118.820312 C 41.714844 119.023438 41.789062 119.183594 41.851562 119.308594 L 41.808594 119.25 C 41.390625 118.585938 40.777344 117.933594 39.96875 117.285156 L 30.601562 129 L 39.320312 116.792969 C 38.464844 116.183594 37.75 115.859375 37.164062 115.8125 C 37.847656 115.867188 38.933594 115.730469 40.421875 115.402344 C 45.265625 114.335938 51.097656 112.226562 57.914062 109.082031 C 65.410156 105.621094 73.410156 101.570312 81.917969 96.929688 C 90.675781 92.15625 99.332031 87.378906 107.890625 82.601562 C 121.550781 74.765625 135.71875 67.003906 150.386719 59.3125 C 165.464844 51.410156 180.109375 44.847656 194.324219 39.621094 C 209.765625 33.945312 224.164062 31.339844 237.527344 31.808594 L 237 46.800781 Z M 237 61.800781 L 236.738281 61.800781 L 236.472656 61.789062 C 227.035156 61.460938 216.433594 63.457031 204.675781 67.777344 C 191.6875 72.554688 178.234375 78.589844 164.3125 85.886719 C 149.980469 93.398438 136.046875 101.035156 122.511719 108.796875 C 113.867188 113.621094 105.125 118.445312 96.28125 123.269531 C 87.1875 128.230469 78.589844 132.578125 70.484375 136.320312 C 61.703125 140.371094 53.835938 143.164062 46.878906 144.699219 C 36.632812 146.957031 28.300781 145.792969 21.882812 141.207031 L 21.546875 140.96875 L 21.230469 140.714844 C 18.203125 138.292969 15.75 134.78125 13.867188 130.179688 C 12.179688 126.058594 11.410156 120.609375 11.554688 113.832031 C 11.675781 108.128906 12.742188 100.808594 14.753906 91.867188 C 17.78125 78.140625 21.5625 62.160156 26.09375 43.929688 C 30.609375 25.761719 35.582031 6.378906 41.007812 -14.21875 L 57.667969 -76.660156 C 63.386719 -97.832031 69.054688 -118.246094 74.671875 -137.910156 C 83.703125 -169.613281 91.335938 -195.566406 97.566406 -215.769531 C 103.835938 -236.089844 109.058594 -252.058594 113.234375 -263.675781 C 117.457031 -275.421875 120.84375 -284.160156 123.394531 -289.890625 L 152.066406 -282.800781 C 151.851562 -279.582031 151.523438 -275.996094 151.085938 -272.039062 C 151.457031 -275.027344 150.632812 -277.628906 148.605469 -279.835938 C 146.734375 -281.878906 144.398438 -282.898438 141.601562 -282.898438 L 142.535156 -282.898438 L 143.460938 -282.785156 C 140.753906 -283.121094 138.332031 -282.402344 136.195312 -280.625 C 134.367188 -279.097656 133.304688 -277.175781 133.015625 -274.859375 L 147.898438 -273 L 132.941406 -274.109375 C 133.671875 -283.953125 133.789062 -290.949219 133.304688 -295.097656 C 133.285156 -295.238281 133.269531 -295.347656 133.25 -295.429688 C 133.257812 -295.402344 133.273438 -295.347656 133.300781 -295.269531 C 133.484375 -294.746094 133.792969 -294.207031 134.226562 -293.648438 C 135.554688 -291.925781 137.191406 -290.910156 139.132812 -290.605469 C 140.261719 -290.414062 141.304688 -290.46875 142.261719 -290.761719 C 143.828125 -291.246094 145.042969 -291.890625 145.90625 -292.703125 C 145.738281 -292.542969 145.417969 -292.148438 144.953125 -291.523438 C 143.625 -289.730469 141.789062 -286.152344 139.441406 -280.789062 C 136.796875 -274.746094 133.492188 -266.007812 129.519531 -254.578125 C 125.476562 -242.945312 120.632812 -227.964844 114.984375 -209.632812 C 109.3125 -191.21875 102.589844 -168.558594 94.816406 -141.660156 C 89.039062 -121.539062 83.214844 -100.582031 77.34375 -78.792969 L 60.105469 -14.035156 C 54.523438 7.199219 49.390625 27.234375 44.707031 46.070312 C 40.019531 64.914062 35.992188 81.472656 32.621094 95.746094 C 30.316406 105.828125 29.527344 113.824219 30.261719 119.726562 C 30.691406 123.199219 31.53125 125.410156 32.78125 126.363281 L 23.699219 138.300781 L 32.480469 126.140625 C 33.460938 126.847656 35.035156 127.199219 37.199219 127.199219 C 44.609375 127.199219 54.347656 124.140625 66.417969 118.023438 C 80.40625 110.929688 96.121094 102.425781 113.566406 92.515625 C 126.871094 85.054688 140.582031 77.597656 154.691406 70.136719 C 169.265625 62.433594 183.308594 56.070312 196.820312 51.042969 C 211.5 45.578125 224.792969 42.964844 236.699219 43.199219 C 234.410156 43.199219 232.429688 43.964844 230.765625 45.492188 C 228.722656 47.363281 227.699219 49.699219 227.699219 52.5 C 227.699219 55.042969 228.613281 57.226562 230.445312 59.054688 C 232.273438 60.886719 234.457031 61.800781 237 61.800781 Z M 237 61.800781 "/></g></g></g><g fill="#d4a758" fill-opacity="1"><g transform="translate(146.407056, 956.625594)"><g><path d="M 237 46.796875 C 238.601562 46.796875 239.953125 47.34375 241.046875 48.4375 C 242.148438 49.539062 242.703125 50.894531 242.703125 52.5 C 242.703125 54.101562 242.097656 55.453125 240.890625 56.546875 C 239.691406 57.648438 238.296875 58.203125 236.703125 58.203125 C 226.503906 58.003906 214.953125 60.300781 202.046875 65.09375 C 189.148438 69.894531 175.703125 75.992188 161.703125 83.390625 C 147.703125 90.796875 134.101562 98.195312 120.90625 105.59375 C 103.300781 115.59375 87.398438 124.191406 73.203125 131.390625 C 59.003906 138.597656 47.003906 142.203125 37.203125 142.203125 C 31.796875 142.203125 27.296875 140.898438 23.703125 138.296875 C 14.503906 131.296875 12.601562 116 18 92.40625 C 21.394531 78 25.441406 61.34375 30.140625 42.4375 C 34.847656 23.539062 40 3.445312 45.59375 -17.84375 C 51.195312 -39.144531 56.945312 -60.742188 62.84375 -82.640625 C 68.75 -104.546875 74.601562 -125.597656 80.40625 -145.796875 C 88.195312 -172.796875 94.941406 -195.546875 100.640625 -214.046875 C 106.347656 -232.546875 111.25 -247.695312 115.34375 -259.5 C 119.445312 -271.300781 122.898438 -280.398438 125.703125 -286.796875 C 128.503906 -293.203125 130.90625 -297.753906 132.90625 -300.453125 C 134.90625 -303.148438 136.550781 -304.695312 137.84375 -305.09375 C 139.144531 -305.5 140.394531 -305.601562 141.59375 -305.40625 C 145.394531 -304.800781 147.59375 -301.945312 148.1875 -296.84375 C 148.789062 -291.75 148.695312 -283.800781 147.90625 -273 C 147.695312 -271.394531 146.992188 -270.09375 145.796875 -269.09375 C 144.597656 -268.09375 143.195312 -267.695312 141.59375 -267.90625 C 140 -267.90625 138.648438 -268.503906 137.546875 -269.703125 C 136.453125 -270.898438 136.003906 -272.300781 136.203125 -273.90625 C 136.597656 -277.5 136.894531 -280.796875 137.09375 -283.796875 C 134.695312 -278.398438 131.445312 -270 127.34375 -258.59375 C 123.25 -247.195312 118.097656 -231.445312 111.890625 -211.34375 C 105.691406 -191.25 98.09375 -165.398438 89.09375 -133.796875 C 83.5 -114.203125 77.847656 -93.851562 72.140625 -72.75 C 66.441406 -51.644531 60.894531 -30.84375 55.5 -10.34375 C 50.101562 10.15625 45.15625 29.453125 40.65625 47.546875 C 36.15625 65.648438 32.40625 81.5 29.40625 95.09375 C 27.601562 103.09375 26.648438 109.441406 26.546875 114.140625 C 26.453125 118.847656 26.851562 122.300781 27.75 124.5 C 28.644531 126.695312 29.59375 128.195312 30.59375 129 C 33.394531 131 37.742188 131.347656 43.640625 130.046875 C 49.546875 128.742188 56.398438 126.289062 64.203125 122.6875 C 72.003906 119.09375 80.300781 114.894531 89.09375 110.09375 C 97.894531 105.300781 106.597656 100.503906 115.203125 95.703125 C 128.796875 87.898438 142.84375 80.195312 157.34375 72.59375 C 171.84375 65 185.894531 58.703125 199.5 53.703125 C 213.101562 48.703125 225.601562 46.398438 237 46.796875 Z M 237 46.796875 "/></g></g></g></svg>